<svg xmlns="http://www.w3.org/2000/svg" xmlns:xlink="http://www.w3.org/1999/xlink" width="1110" height="60" version="1.1" viewBox="0 0 1110 60"><title>Artboard</title><desc>Created with Sketch.</desc><defs><rect id="path-1" width="1110" height="60" x="0" y="0"/><path id="path-3" d="M0,176 C49.15292,176 89,136.600889 89,88 C89,39.3991111 49.15292,0 0,0"/></defs><g id="Artboard" fill="none" fill-rule="evenodd" stroke="none" stroke-width="1"><g id="Group-11"><mask id="mask-2" fill="#fff"><use xlink:href="#path-1"/></mask><use id="Rectangle" fill="#000" xlink:href="#path-1"/><g id="Group" mask="url(#mask-2)"><g transform="translate(333.000000, -170.000000)"><g id="row_img3_svg__Group-8" fill-rule="evenodd" stroke="none" transform="translate(544.000000, 160.000000)"><path id="row_img3_svg__Combined-Shape" fill="#EF4451" fill-rule="nonzero" stroke="#EF4451" d="M0.5,72 L0.5,0.300231214 L0.5,72 Z"/></g><polygon id="row_img3_svg__Path-6" stroke="#0D49FF" points="762 310.899 698.699 130 449.961 229.648 430 380"/><polyline id="row_img3_svg__Path-8" stroke="#FFF" points="538.831 248.326 604.692 130 636.915 228.942 701.291 165.879 709.278 187.641 752 137.604"/><polygon id="row_img3_svg__Path-6" stroke="#0D49FF" points="377.5 7 515.199 159.601 127 255 0 255"/><polyline id="row_img3_svg__Path-8" stroke="#FFF" points="175 240 225.212 186.811 270.003 206.05 384.692 0 416.915 98.942 481.291 35.879 489.278 57.641 532 7.604"/></g></g><g id="Group" mask="url(#mask-2)"><g id="row_img2_svg__Group-13"><g transform="translate(-117.000000, -91.000000)"><circle id="row_img2_svg__Oval" cx="116.5" cy="116.5" r="116.5" stroke="#05F" stroke-width="2"/><circle id="row_img2_svg__Oval" cx="67.588" cy="67.588" r="67.588" stroke="#05F" stroke-width="2"/></g><g transform="translate(-117.000000, -91.000000) translate(116.000000, 29.000000)"><g id="row_img2_svg__Mask" fill="#EF4451" fill-rule="nonzero"><path id="row_img2_svg__path-1" d="M0,176 C49.15292,176 89,136.600889 89,88 C89,39.3991111 49.15292,0 0,0"/></g><g id="row_img2_svg__Oval-Clipped"><mask id="mask-4" fill="#fff"><use xlink:href="#path-3"/></mask><g id="row_img2_svg__Oval" mask="url(#mask-4)"><g id="Group"><g transform="translate(-127.700000, -28.444444)"><ellipse id="Oval" cx="94.34" cy="94.222" stroke="#FFF" rx="94.34" ry="94.222"/><ellipse id="Oval" cx="74.64" cy="85.556" stroke="#FFF" rx="67.64" ry="67.556"/></g></g></g></g></g></g></g></g></g></svg>