<svg xmlns="http://www.w3.org/2000/svg" xmlns:xlink="http://www.w3.org/1999/xlink" width="40" height="37" version="1.1" viewBox="0 0 40 37"><title>anonym2</title><desc>Created with Sketch.</desc><g id="step_2" fill="none" fill-rule="evenodd" stroke="none" stroke-width="1" transform="translate(-390.000000, -374.000000)"><g id="white-bg" fill="#1F5AF6" transform="translate(330.000000, 102.000000)"><g id="left" transform="translate(55.000000, 271.000000)"><g id="Line-1" transform="translate(5.000000, 0.000000)"><g id="anonym2" transform="translate(0.000000, 1.500000)"><rect id="Rectangle-10" width="30.071" height="2" x="0" y="14.5"/><polygon id="Rectangle-10" points="4.8 14.536 14.158 .141 20.224 6.956 27.624 .486 36.069 18.182 33.831 18.182 26.967 3.702 20.029 9.778 14.407 3.433 6.775 15.163"/><rect id="Rectangle-10" width="40" height="2" x="0" y="18"/><polygon id="Rectangle-10" points="0 18 20.042 22 40 18 40 20 19.992 24 0 20"/><g id="Group-8" transform="translate(3.500000, 24.000000)"><rect id="Rectangle-10" width="3" height="2" x="0" y="5"/><rect id="Rectangle-10" width="3" height="2" x="30" y="5"/><path id="Rectangle-10" d="M13.2926941,5.06005859 C14.2944139,4.60064697 15.2950242,4.37094116 16.2945251,4.37094116 C17.2940261,4.37094116 18.2934157,4.60064697 19.2926941,5.06005859 L19.2926941,7.06005859 C18.2540563,6.60064697 17.2403437,6.37094116 16.2515564,6.37094116 C15.2627691,6.37094116 14.2764816,6.60064697 13.2926941,7.06005859 L13.2926941,5.06005859 Z"/><path id="Oval" d="M8,12.5 C4.6862915,12.5 2,9.8137085 2,6.5 C2,3.1862915 4.6862915,0.5 8,0.5 C11.3137085,0.5 14,3.1862915 14,6.5 C14,9.8137085 11.3137085,12.5 8,12.5 Z M8.0049272,10.8636364 C10.414897,10.8636364 12.3685636,8.90996982 12.3685636,6.5 C12.3685636,4.09003018 10.414897,2.13636364 8.0049272,2.13636364 C5.59495738,2.13636364 3.64129084,4.09003018 3.64129084,6.5 C3.64129084,8.90996982 5.59495738,10.8636364 8.0049272,10.8636364 Z"/><path id="Oval" d="M25,12.5 C21.6862915,12.5 19,9.8137085 19,6.5 C19,3.1862915 21.6862915,0.5 25,0.5 C28.3137085,0.5 31,3.1862915 31,6.5 C31,9.8137085 28.3137085,12.5 25,12.5 Z M25.0049272,10.8636364 C27.414897,10.8636364 29.3685636,8.90996982 29.3685636,6.5 C29.3685636,4.09003018 27.414897,2.13636364 25.0049272,2.13636364 C22.5949574,2.13636364 20.6412908,4.09003018 20.6412908,6.5 C20.6412908,8.90996982 22.5949574,10.8636364 25.0049272,10.8636364 Z"/></g></g></g></g></g></g></svg>