<svg xmlns="http://www.w3.org/2000/svg" xmlns:xlink="http://www.w3.org/1999/xlink" width="40" height="39" version="1.1" viewBox="0 0 40 39"><title>mail2</title><desc>Created with Sketch.</desc><g id="step_3" fill="none" fill-rule="evenodd" stroke="none" stroke-width="1" transform="translate(-390.000000, -413.000000)"><g id="white-bg" fill="#1F5AF6" transform="translate(330.000000, 102.000000)"><g id="left" transform="translate(55.000000, 231.000000)"><g id="LINE-3" transform="translate(4.000000, 80.000000)"><g id="mail2"><rect id="Rectangle-11" width="40" height="2" x="1" y="36.681"/><rect id="Rectangle-11" width="20.7" height="2" x="-8.35" y="25.35" transform="translate(2.000000, 26.350006) rotate(-90.000000) translate(-2.000000, -26.350006)"/><polygon id="Rectangle-11" points="-.701 7.835 23.797 7.835 24.461 9.835 -1.829 9.835 -1.829 9.381" transform="translate(11.316143, 8.835181) rotate(-36.000000) translate(-11.316143, -8.835181)"/><polygon id="Rectangle-11" points="17.621 7.735 42.533 7.735 43.211 9.735 17.226 9.735 17.226 8.275" transform="translate(30.218776, 8.734907) scale(-1, 1) rotate(-36.000000) translate(-30.218776, -8.734907)"/><polygon id="Rectangle-11" points=".752 20.052 17.922 20.052 17.922 22.052 .614 22.041" transform="translate(9.268249, 21.052392) rotate(-146.500000) translate(-9.268249, -21.052392)"/><polygon id="Rectangle-11" points="24.674 20.298 41.147 20.298 41.147 22.298 24.542 22.287" transform="translate(32.844668, 21.298198) scale(-1, 1) rotate(-144.500000) translate(-32.844668, -21.298198)"/><polygon id="Rectangle-11" points=".647 28.761 23.961 28.722 23.122 30.761 .647 30.761" transform="translate(12.303768, 29.741334) rotate(-37.000000) translate(-12.303768, -29.741334)"/><polygon id="Rectangle-11" points="18.055 28.754 41.456 28.732 41.456 30.732 18.711 30.732" transform="translate(29.755453, 29.732459) rotate(37.000000) translate(-29.755453, -29.732459)"/><rect id="Rectangle-11" width="20.7" height="2" x="29.65" y="25.35" transform="translate(40.000000, 26.350006) rotate(-90.000000) translate(-40.000000, -26.350006)"/></g></g></g></g></g></svg>