<svg xmlns="http://www.w3.org/2000/svg" xmlns:xlink="http://www.w3.org/1999/xlink" width="41" height="40" version="1.1" viewBox="0 0 41 40"><title>paper2</title><desc>Created with Sketch.</desc><g id="step_2" fill="none" fill-rule="evenodd" stroke="none" stroke-width="1" transform="translate(-740.000000, -519.000000)"><g id="white-bg" fill="#1F5AF6" transform="translate(330.000000, 102.000000)"><g id="right" transform="translate(405.000000, 271.000000)"><g id="LINE-5" transform="translate(4.000000, 140.000000)"><g id="paper2" transform="translate(1.000000, 5.000000)"><rect id="Rectangle-9" width="2" height="15.974" x="38" y="11.026"/><rect id="Rectangle-9" width="2" height="11" x="28" y="1"/><polygon id="Rectangle-9" points="33.707 -1.778 34.701 -1.356 35.699 -.358 35.706 13.209 33.707 15.193" transform="translate(34.706790, 6.707714) rotate(-45.000000) translate(-34.706790, -6.707714)"/><rect id="Rectangle-9" width="2" height="12" x="33" y="6" transform="translate(34.000000, 12.000000) rotate(90.000000) translate(-34.000000, -12.000000)"/><rect id="Rectangle-9" width="2" height="28.5" x="13.75" y="-12.25" transform="translate(14.750000, 2.000000) rotate(90.000000) translate(-14.750000, -2.000000)"/><rect id="Rectangle-9" width="2" height="15.25" x="13.875" y="3.375" transform="translate(14.875000, 11.000000) rotate(90.000000) translate(-14.875000, -11.000000)"/><rect id="Rectangle-9" width="2" height="9" x="3.5" y="28.25"/><rect id="Rectangle-9" width="2" height="9" x="7.5" y="24"/><rect id="Rectangle-9" width="2" height="12" x="11.5" y="24"/><rect id="Rectangle-9" width="2" height="8.75" x="15.5" y="32"/><rect id="Rectangle-9" width="2" height="9" x="19.5" y="28"/><rect id="Rectangle-9" width="2" height="9" x="23.5" y="24"/><rect id="Rectangle-9" width="2" height="9" x="27.5" y="26"/><rect id="Rectangle-9" width="2" height="9" x="31.5" y="29"/><rect id="Rectangle-9" width="2" height="5" x="34.5" y="26"/><rect id="Rectangle-9" width="2" height="26" x="19" y="4" transform="translate(20.000000, 17.000000) rotate(90.000000) translate(-20.000000, -17.000000)"/><rect id="Rectangle-9" width="2" height="32" x="0" y="1"/></g></g></g></g></g></svg>