<svg xmlns="http://www.w3.org/2000/svg" xmlns:xlink="http://www.w3.org/1999/xlink" width="41" height="34" version="1.1" viewBox="0 0 41 34"><title>browser</title><desc>Created with Sketch.</desc><g id="step_2" fill="none" fill-rule="evenodd" stroke="none" stroke-width="1" transform="translate(-740.000000, -377.000000)"><g id="white-bg" fill="#1F5AF6" transform="translate(330.000000, 102.000000)"><g id="right" transform="translate(405.000000, 271.000000)"><g id="LINE-2" transform="translate(5.000000, 0.000000)"><g id="browser" transform="translate(0.000000, 4.000000)"><polygon id="Shape" fill-rule="nonzero" points="11.852 18.139 11.293 17.194 10.203 17.806 10.203 16.556 9.085 16.556 9.085 17.806 7.966 17.194 7.407 18.139 8.498 18.778 7.407 19.417 7.966 20.361 9.085 19.75 9.085 21 10.203 21 10.203 19.75 11.293 20.361 11.852 19.417 10.734 18.778"/><polygon id="Shape" fill-rule="nonzero" points="22.222 18.139 21.663 17.194 20.573 17.806 20.573 16.556 19.455 16.556 19.455 17.806 18.337 17.194 17.778 18.139 18.868 18.778 17.778 19.417 18.337 20.361 19.455 19.75 19.455 21 20.573 21 20.573 19.75 21.663 20.361 22.222 19.417 21.104 18.778"/><polygon id="Shape" fill-rule="nonzero" points="32.593 18.139 32.034 17.194 30.943 17.806 30.943 16.556 29.825 16.556 29.825 17.806 28.707 17.194 28.148 18.139 29.238 18.778 28.148 19.417 28.707 20.361 29.825 19.75 29.825 21 30.943 21 30.943 19.75 32.034 20.361 32.593 19.417 31.474 18.778"/><rect id="Rectangle" width="40" height="2" x="0" y="0"/><rect id="Rectangle" width="36.296" height="2" x="0" y="5.926"/><rect id="Rectangle-2" width="1.481" height="1.481" x="35.556" y="3"/><rect id="Rectangle-2" width="1.481" height="1.481" x="32.593" y="3"/><rect id="Rectangle" width="40" height="2" x="0" y="31.111"/><polygon id="Rectangle" points="22.963 15.556 55.556 15.556 55.556 17.556 22.963 17.556" transform="translate(39.259259, 16.555556) rotate(90.000000) translate(-39.259259, -16.555556)"/><polygon id="Rectangle" points="-15.296 15.556 17.296 15.556 17.296 17.556 -15.296 17.556" transform="translate(1.000000, 16.555556) rotate(90.000000) translate(-1.000000, -16.555556)"/></g></g></g></g></g></svg>