<svg xmlns="http://www.w3.org/2000/svg" xmlns:xlink="http://www.w3.org/1999/xlink" width="300" height="283" version="1.1" viewBox="0 0 300 283"><title>COMP_ICONS</title><desc>Created with Sketch.</desc><defs><linearGradient id="linearGradient-1" x1="55.971%" x2="55.971%" y1="84.102%" y2="18.847%"><stop offset="0%" stop-color="#578FFF"/><stop offset="100%" stop-color="#3967CF"/></linearGradient><polygon id="path-2" points="13.931 3.378 21.759 7.929 13.411 13.356 4.853 8.373"/><polygon id="path-3" points="13.931 3.378 21.759 7.929 13.411 13.356 4.853 8.373"/><radialGradient id="radialGradient-4" cx="18.803%" cy="42.525%" r="170.12%" fx="18.803%" fy="42.525%" gradientTransform="translate(0.188034,0.425254),scale(1.000000,0.689320),rotate(54.079939),scale(1.000000,0.367135),translate(-0.188034,-0.425254)"><stop offset="0%" stop-color="#82AEFE"/><stop offset="100%" stop-color="#C4D9FF"/></radialGradient></defs><g id="Page-1" fill="none" fill-rule="evenodd" stroke="none" stroke-width="1"><g id="COMP_ICONS" transform="translate(-110.000000, -34.000000)"><g id="icons" transform="translate(129.000000, 34.000000)"><g id="LOCK" transform="translate(232.000000, 67.000000)"><rect id="Rectangle-10" width="1" height="66" x="37" y="30" fill="#C4D9FF"/><polygon id="Rectangle-10" fill="#C4D9FF" points="18.973 84.998 19.973 84.998 19.953 127.466 18.953 127.466" transform="translate(19.462708, 106.231705) rotate(-300.000000) translate(-19.462708, -106.231705)"/><g id="koshel2" transform="translate(13.000000, 0.000000)"><path id="Rectangle-32" fill="#CADDFF" d="M7.01773781,14.4986693 L28.0797495,2.10388137 C29.0317097,1.54366212 30.2575733,1.86123088 30.8177926,2.81319105 C30.998712,3.12062085 31.0941162,3.47084367 31.0941162,3.82755774 L31.0941162,21.7853885 C31.0941162,22.4671331 30.7468464,23.1019213 30.1727466,23.4695965 L9.1107349,36.9585046 C8.18057253,37.5542157 6.94360766,37.2830894 6.34789653,36.352927 C6.14169629,36.0309594 6.03210449,35.6566338 6.03210449,35.2742966 L6.03210449,16.2223456 C6.03210449,15.5137522 6.40704496,14.858056 7.01773781,14.4986693 Z"/><path id="Oval-5" fill="#93B6FF" d="M31,4 C32.1045695,4 33.9143372,3.30448202 33.9143372,2.75219727 C33.9143372,2.19991252 32.5171061,1.59365845 31.4125366,1.59365845 C30.3079671,1.59365845 29,2.44771525 29,3 C29,3.55228475 29.8954305,4 31,4 Z"/><path id="Rectangle-32" fill="#D6E4FF" d="M8.03635988,14.5021805 L30.1336851,1.8165168 C31.0916234,1.26658224 32.3139959,1.5973346 32.8639304,2.55527289 C32.9583938,2.71981983 33.028962,2.89697147 33.0735131,3.0814009 L33.4046631,4.45227051 L32.1657619,21.8718877 C32.1206882,22.5056565 31.777157,23.0803038 31.2402516,23.4200496 C16.5329875,32.7265885 8.61358883,37.538517 7.48205566,37.855835 C7.48205566,37.855835 7.48205566,37.855835 7.48205566,37.855835 L7.48205566,37.855835 C7.29366475,37.9086658 7.0981159,37.7987726 7.04528509,37.6103817 C7.0365535,37.5792455 7.03212604,37.5470604 7.03212604,37.514723 L7.03210449,16.2366812 C7.03210449,15.5203955 7.41516084,14.8587993 8.03635988,14.5021805 Z"/><path id="Rectangle-32" fill="#004AFA" d="M9.02961561,15.435112 L32.0916273,2.07601277 C33.0474176,1.52235345 34.2710684,1.84834504 34.8247277,2.80413536 C35.00119,3.10876481 35.0941162,3.45457588 35.0941162,3.80662424 L35.0941162,21.5965792 C35.0941162,22.3277068 34.6951652,23.0005698 34.0536835,23.3513529 L7.44274902,37.9030762 L7.44274902,37.9030762 C7.2887777,37.9558496 7.12117795,37.8738125 7.06840451,37.7198412 C7.02737734,37.6001407 7.06734013,37.4676099 7.16769985,37.3905426 C7.74397531,36.9480499 8.03210449,36.7160956 8.03210449,36.6947021 C8.03210449,30.1850426 8.03210449,23.6753831 8.03210449,17.1657235 L8.03210449,17.1657235 C8.03210449,16.4522194 8.41221642,15.792752 9.02961561,15.435112 Z"/><path id="Rectangle-32" fill="#D6E4FF" d="M10.0349483,15.501905 L32.4350586,2.61816406 L32.4350586,2.61816406 C32.8836556,2.26984208 33.5296861,2.35113103 33.8780081,2.79972803 C34.0180827,2.98012738 34.0941162,3.20202457 34.0941162,3.43042078 L34.0941162,4.99090576 L34.0941162,22.7853885 C34.0941162,23.4671331 33.7468464,24.1019213 33.1727466,24.4695965 L12.1107349,37.9585046 C11.1805725,38.5542157 9.94360766,38.2830894 9.34789653,37.352927 C9.14169629,37.0309594 9.03210449,36.6566338 9.03210449,36.2742966 L9.03210449,17.2355946 C9.03210449,16.5198906 9.41454411,15.8587393 10.0349483,15.501905 Z"/><g id="Group-10" transform="translate(6.000000, 1.000000)"><path id="Path-2" fill="#CADDFF" d="M29.1018677,4.50402832 C29.1018677,1.50042725 29.1278076,1.25598145 28.0368652,0.76739502 C26.9459229,0.278808594 25.0605774,0.1925354 23.5400391,0.554016113 C22.5263468,0.795003255 21.7486165,1.23612467 21.2068481,1.87738037 C22.0666681,1.46154072 22.7876764,1.21249694 23.369873,1.13024902 C24.3576992,0.990697153 25.7050534,0.899756703 26.8376465,1.24865723 C28.5881711,1.7879144 27.0327413,2.56185911 25.9929199,3.22399902 C25.1314449,3.77257113 24.300415,4.28430176 24.5216064,4.40002441 C24.6608978,4.47289871 29.1018677,7.50762939 29.1018677,4.50402832 Z"/><path id="Rectangle-32" fill="#CADDFF" d="M4.98241451,15.5194567 L26.0797495,3.10388137 C27.0317097,2.54366212 28.2575733,2.86123088 28.8177926,3.81319105 C28.998712,4.12062085 29.0941162,4.47084367 29.0941162,4.82755774 L29.0941154,22.7707602 C29.0941154,23.4605339 28.7386779,24.1016251 28.1536514,24.467045 C16.8831037,31.5068663 9.38201678,36.1508265 5.65039062,38.3989258 C5.65039062,38.3989258 5.65039062,38.3989258 5.65039062,38.3989258 L5.65039062,38.3989258 C4.92956206,38.8331853 3.99317817,38.6008752 3.55891866,37.8800466 C3.36512141,37.558362 3.29694837,37.1764395 3.36748231,36.8075718 C3.37366276,36.7749117 3.3773288,36.7505981 3.37841797,36.7346191 C3.39026932,36.5607502 3.59671301,30.0428096 3.99774903,17.1807974 L3.99775621,17.1807976 C4.01914735,16.4947417 4.39085795,15.8675819 4.98241451,15.5194567 Z"/><rect id="Rectangle-11" width="2" height="23" x="0" y="14" fill="#90B8FF" rx="1"/><path id="Rectangle-11" fill="#90B8FF" d="M4,15 L5,15 C5.55228475,15 6,15.4477153 6,16 L6,37.6101074 C6,38.1623922 5.55228475,38.6101074 5,38.6101074 L4,38.6101074 C3.44771525,38.6101074 3,38.1623922 3,37.6101074 L3,16 C3,15.4477153 3.44771525,15 4,15 Z"/><g id="Group-7" transform="translate(0.000000, 21.000000)"><path id="Path-52" fill="#588EFD" d="M0.0371719616,1.41412152 C2.36187796,2.48382501 3.83687337,3.01867676 4.4621582,3.01867676 C5.40008545,3.01867676 9.6803409,0.290466118 9.72991943,0.252197266 C9.77949796,0.213928413 10.7816772,0.0155944824 10.7816772,0.945159912 C10.7816772,1.53503733 10.7816772,3.26495174 10.7816772,6.20391846 C10.7816772,6.4708252 10.5934245,6.72411092 10.2169189,6.96377563 C7.02579753,8.98959351 5.10754395,10.0025024 4.4621582,10.0025024 C3.81677246,10.0025024 2.33612183,9.46531649 0.0202063064,8.39094459 L0.0371719616,1.41412152 Z"/><path id="Oval-8" fill="#004AFA" d="M7.88684082,6.82800293 C8.90572259,6.46398175 9.76639224,5.27345378 9.80920029,4.16888428 C9.85200834,3.06431478 8.99128062,2.46398175 7.88671112,2.82800293 C6.78214162,3.19202411 5.92147197,4.38255208 5.96435165,5.48712158 C6.00723134,6.59169108 6.86795905,7.19202411 7.88684082,6.82800293 Z"/></g></g></g></g><g id="MONEY" transform="translate(194.000000, 0.000000)"><g id="Group-5"><g id="Group-4"><g id="MONEY"><rect id="Rectangle-10" width="1" height="75" x="13" y="22" fill="#C4D9FF"/><polygon id="Rectangle-10" fill="#C4D9FF" points="6.973 92.99 7.973 92.99 7.973 107.622 6.973 107.622" transform="translate(7.473189, 100.305806) rotate(63.000000) translate(-7.473189, -100.305806)"/><g id="Group-8"><g transform="translate(0.277056, 3.482993)"><path id="Oval-4" fill="#2A68F9" d="M13.2487498,19.2967898 C20.5658322,19.2967898 26.4974995,15.3765692 26.4974995,10.540732 C26.4974995,5.70489481 20.5658322,1.7846742 13.2487498,1.7846742 C5.93166732,1.7846742 0,5.70489481 0,10.540732 C0,15.3765692 5.93166732,19.2967898 13.2487498,19.2967898 Z"/><path id="Oval-4" fill="#CADDFF" d="M13.2487498,17.5121156 C20.5658322,17.5121156 26.4974995,13.591895 26.4974995,8.7560578 C26.4974995,3.92022061 20.5658322,0 13.2487498,0 C5.93166732,0 0,3.92022061 0,8.7560578 C0,13.591895 5.93166732,17.5121156 13.2487498,17.5121156 Z"/><g id="Rectangle-19"><use fill="#578FFF" fill-rule="evenodd" xlink:href="#path-2"/><path stroke="url(#linearGradient-1)" stroke-width="1" d="M13.9245073,3.95271242 L5.86775417,8.38539305 L13.3961907,12.7686303 L20.8045697,7.95283766 L13.9245073,3.95271242 Z"/></g></g><g transform="translate(2.493506, 0.000000)"><path id="Oval-4" fill="#2A68F9" d="M13.2487498,19.2967898 C20.5658322,19.2967898 26.4974995,15.3765692 26.4974995,10.540732 C26.4974995,5.70489481 20.5658322,1.7846742 13.2487498,1.7846742 C5.93166732,1.7846742 0,5.70489481 0,10.540732 C0,15.3765692 5.93166732,19.2967898 13.2487498,19.2967898 Z"/><path id="Oval-4" fill="#CADDFF" d="M13.2487498,17.5121156 C20.5658322,17.5121156 26.4974995,13.591895 26.4974995,8.7560578 C26.4974995,3.92022061 20.5658322,0 13.2487498,0 C5.93166732,0 0,3.92022061 0,8.7560578 C0,13.591895 5.93166732,17.5121156 13.2487498,17.5121156 Z"/><g id="Rectangle-19"><use fill="#578FFF" fill-rule="evenodd" xlink:href="#path-3"/><path stroke="url(#linearGradient-1)" stroke-width="1" d="M13.9245073,3.95271242 L5.86775417,8.38539305 L13.3961907,12.7686303 L20.8045697,7.95283766 L13.9245073,3.95271242 Z"/></g></g></g></g></g></g></g><g id="MONEY" transform="translate(0.654175, 25.227417)"><g id="Group-5" transform="translate(1.000000, 12.000000)"><g id="Group-4" transform="translate(0.000000, 9.000000)"><polygon id="Rectangle-31" fill="#3664DB" points=".183 2.551 4.7 5.083 4.7 15.522 .2 13.142"/><polygon id="Rectangle-32" fill="#588EFD" points="4.693 5.079 9 2.755 9 13.36 4.693 15.522"/><polygon id="Rectangle-33" fill="#699AFF" points="4.603 .269 8.997 2.756 4.694 5.095 .184 2.555"/></g><rect id="Rectangle-10" width="1" height="12" x="4" y="0" fill="#3664DB"/><rect id="Rectangle-10" width="1" height="12" x="14" y="9.773" fill="#2F56B9"/></g><g id="Group-5" transform="translate(21.000000, 2.000000)"><g id="Group-4" transform="translate(0.000000, 9.000000)"><polygon id="Rectangle-31" fill="#3664DB" points=".183 2.551 4.7 5.083 4.7 15.522 .2 13.142"/><polygon id="Rectangle-32" fill="#588EFD" points="4.693 5.079 9 2.755 9 13.36 4.693 15.522"/><polygon id="Rectangle-33" fill="#699AFF" points="4.603 .269 8.997 2.756 4.694 5.095 .184 2.555"/></g><rect id="Rectangle-10" width="1" height="12" x="4" y="0" fill="#3664DB"/></g><g id="dex-icon" transform="translate(0.500000, 4.000000)"><g id="dex-2222222" transform="translate(10.000000, 0.000000)"><polygon id="Rectangle-31" fill="#90B8FF" points=".683 2.551 5.2 5.083 5.2 18.522 .7 16.142"/><polygon id="Rectangle-32" fill="#CADDFF" points="5.193 5.079 9.5 2.755 9.5 16.36 5.193 18.522"/><polygon id="Rectangle-33" fill="#D6E4FF" points="5.103 .269 9.497 2.756 5.194 5.095 .684 2.555"/></g></g><rect id="Rectangle-10" width="1" height="7" x="15" y="0" fill="#3664DB"/></g><g id="KOSHEL" fill="#C4D9FF" transform="translate(7.000000, 31.000000)"><rect id="Rectangle-10" width="1" height="48" x="8.666" y="28"/><polygon id="Rectangle-10" points="29.819 63.408 30.819 63.408 30.819 112.838 29.819 112.838" transform="translate(30.319157, 88.122964) rotate(-240.000000) translate(-30.319157, -88.122964)"/></g></g><g id="COMP"><g id="NOUT" transform="translate(103.000000, 36.000000)"><g id="Podstavka-1" transform="translate(6.435644, 27.029703)"><polygon id="Rectangle-4" fill="#0069EC" fill-opacity=".199" points=".612 125.659 252.921 126.763 252.921 180.897 .612 179.818"/><polygon id="Rectangle-Copy-3" fill="#BACAF5" points="74.053 129.593 216.4 91.54 178.733 232.349 37.164 269.19" transform="translate(126.782178, 180.365099) rotate(45.000000) translate(-126.782178, -180.365099)"/><polygon id="Rectangle-Copy-3" fill="#5A81EA" points="74.053 117.572 216.4 79.519 178.733 220.329 37.164 257.17" transform="translate(126.782178, 168.344236) rotate(45.000000) translate(-126.782178, -168.344236)"/><polygon id="Rectangle" fill="#1651EC" points="74.053 103.531 216.4 65.477 178.733 206.287 37.164 243.128" transform="translate(126.782178, 154.302511) rotate(45.000000) translate(-126.782178, -154.302511)"/><polygon id="Rectangle" fill="#0D3CBA" points="74.053 87.468 216.4 49.415 178.733 190.224 37.164 227.065" transform="translate(126.782178, 138.239922) rotate(45.000000) translate(-126.782178, -138.239922)"/><polygon id="Rectangle-Copy" fill="#EFF3FD" points="74.053 75.447 216.4 37.394 178.733 178.203 37.164 215.044" transform="translate(126.782178, 126.219059) rotate(45.000000) translate(-126.782178, -126.219059)"/></g><path id="Path-44" fill="#CADDFF" d="M41.4742432,141.800537 C41.4742432,143.73971 40.6849365,146.895874 43.6215012,148.764679 C45.579211,150.010549 47.8285276,151.404813 50.3694511,152.947469 L139.033103,204.306898 C141.20689,205.817646 143.42447,206.57302 145.685841,206.57302 C146.154875,206.57302 147.841867,206.7796 150.251478,205.413468 C156.674364,201.772002 181.686567,187.504532 225.288086,162.611057 C225.288086,160.818572 225.288086,159.747048 225.288086,159.396484 C225.288086,159.045921 188.737098,138.091977 115.635122,96.5346535 L42.6224365,138.320801 C41.8569743,139.347843 41.4742432,140.507755 41.4742432,141.800537 Z"/><path id="Path-43" fill="#C4D9FF" d="M116.02923,95.9554321 C73.0023996,120.74581 49.3666237,134.3831 45.1219028,136.867303 C44.7530319,137.083183 43.6687872,137.704885 43.37485,137.851093 C41.1740663,138.945795 41.8875707,141.737757 42.1701731,142.302293 C42.4527756,142.86683 42.9905643,143.252842 43.5398163,143.540896 C44.8075399,144.20575 45.9499565,145.002674 48.4097858,146.312287 C48.8024501,146.521341 50.0588686,147.322813 51.8254869,148.33725 C58.2044411,152.000211 87.8668777,169.244643 140.812797,200.070546 C142.152383,200.795639 143.219373,201.200502 144.013766,201.285136 C145.205356,201.412086 146.719143,201.606705 148.117619,201.140529 C148.577702,200.987162 149.051636,200.904138 150.207515,200.322416 C150.978102,199.934601 152.412378,199.130024 154.510343,197.908686 L224.60396,158.429021 L116.355994,95.2475248 L116.02923,95.9554321 Z"/><path id="Path-46" fill="#C4D9FF" d="M225.247525,162.821782 L225.246526,68.3261028 C225.173963,65.9485492 224.970074,64.2827061 224.634859,63.3285736 C224.132035,61.8973747 223.950935,61.3716388 223.265619,60.2772184 C222.519419,59.085568 221.611237,58.1318848 221.250345,57.8271772 C220.73319,57.3905352 220.155096,56.8817356 219.543216,56.4551047 C218.995927,56.0735092 218.094264,55.5358472 216.838228,54.8421188 L122.728413,0.830129423 C121.7092,0.136533134 120.84296,-0.12242387 120.129692,0.0532584118 C119.059791,0.316781834 116.826206,1.86955022 116.264663,2.47009249 C115.8903,2.870454 115.76438,3.57732551 115.886901,4.59070703 L116.264663,96.4969339 L225.247525,162.821782 Z"/><path id="Path-45" fill="#004AFA" d="M115.841584,96.4316299 L115.967336,5.07544821 C115.955403,4.62629318 115.955403,4.32508385 115.967336,4.17182024 C115.993931,3.83023872 116.071548,3.66997359 116.113053,3.51019035 C116.159329,3.33203491 116.33048,3.01165501 116.575749,2.73692217 C116.882521,2.39329935 117.309836,2.09946699 117.806517,1.99651211 C117.808022,1.99620019 117.93551,1.95594122 118.150917,1.93840789 C118.263611,1.92923506 118.420011,1.92706494 118.552831,1.93840789 C118.603508,1.94273572 118.801544,1.9507003 119.024533,2.01457233 C119.120971,2.04219557 119.250756,2.08929448 119.372202,2.14576238 C119.531571,2.21986277 119.678365,2.30549789 119.734503,2.33830426 C120.054563,2.52534285 120.850272,2.98116368 122.12163,3.70576676 L216.61296,57.7447381 C217.201641,58.1072345 217.622019,58.3784366 217.874094,58.5583442 C218.672424,59.1281182 219.28794,59.677436 219.743684,60.1467026 C220.15896,60.5742992 220.589924,61.0198237 221.403786,62.2909454 C222.217648,63.5620672 222.649744,64.9025021 222.869002,65.7155385 C223.022013,66.2829237 223.316832,67.8096124 223.316832,68.8217486 C223.316832,69.4965061 223.316832,70.9990846 223.316832,73.3294843 L223.316832,158.316832 L115.841584,96.4316299 Z"/><polygon id="Rectangle-8" fill="url(#radialGradient-4)" points="123.564 12.228 214.95 64.622 214.95 144.802 123.564 92.344"/><polygon id="Rectangle-9" fill="#A9C8FF" points="113.628 102.97 207.871 157.161 164.173 182.129 70.792 128.339"/><g id="KLAVA-wrp" transform="translate(83.000000, 108.000000)"><g id="KLAVA" fill="#8EB7FF" transform="translate(56.400588, 35.119122) rotate(0.500000) translate(-56.400588, -35.119122) translate(0.400588, 2.119122)"><polygon id="Rectangle-30" points="27.729 .231 33.552 3.582 27.698 7.594 21.879 4.26"/><polygon id="Rectangle-30" points="35.007 4.419 40.825 7.764 34.969 11.754 29.153 8.426"/><polygon id="Rectangle-30" points="42.28 8.599 48.095 11.937 42.235 15.906 36.422 12.585"/><polygon id="Rectangle-30" points="49.548 12.771 55.36 16.102 49.497 20.048 43.688 16.735"/><polygon id="Rectangle-30" points="56.812 16.934 62.62 20.257 56.754 24.182 50.948 20.876"/><polygon id="Rectangle-30" points="64.072 21.087 69.877 24.403 64.007 28.305 58.205 25.007"/><polygon id="Rectangle-30" points="71.327 25.231 77.128 28.539 71.255 32.419 65.457 29.129"/><polygon id="Rectangle-30" points="78.578 29.364 84.376 32.664 78.499 36.522 72.704 33.24"/><polygon id="Rectangle-30" points="85.825 33.487 91.619 36.778 85.738 40.614 79.947 37.341"/><polygon id="Rectangle-30" points="93.067 37.599 98.857 40.881 92.974 44.694 87.186 41.431"/><polygon id="Rectangle-30" points="100.304 41.7 111.875 48.236 105.986 52.009 94.42 45.509"/><polygon id="Rectangle-30" points="98.768 56.761 90.1 51.922 95.986 48.163 104.658 53.028"/><polygon id="Rectangle-30" points="88.655 51.114 82.872 47.877 88.754 44.095 94.54 47.35"/><polygon id="Rectangle-30" points="81.426 47.066 75.639 43.82 81.518 40.016 87.307 43.28"/><polygon id="Rectangle-30" points="74.192 43.007 68.402 39.751 74.278 35.925 80.071 39.199"/><polygon id="Rectangle-30" points="66.954 38.936 61.161 35.671 67.033 31.824 72.829 35.106"/><polygon id="Rectangle-30" points="59.712 34.854 53.915 31.581 59.784 27.712 65.584 31.002"/><polygon id="Rectangle-30" points="52.465 30.762 46.665 27.481 52.53 23.59 58.333 26.888"/><polygon id="Rectangle-30" points="45.214 26.66 39.41 23.371 45.272 19.459 51.079 22.765"/><polygon id="Rectangle-30" points="37.959 22.548 32.151 19.252 38.01 15.318 43.82 18.631"/><polygon id="Rectangle-30" points="30.699 18.427 24.887 15.124 30.743 11.168 36.557 14.489"/><polygon id="Rectangle-30" points="23.434 14.297 14.711 9.331 20.562 5.345 29.289 10.337"/><polygon id="Rectangle-30" points="84.043 65.953 75.385 61.18 81.271 57.501 89.933 62.3"/><polygon id="Rectangle-30" points="73.942 60.383 68.166 57.189 74.048 53.488 79.827 56.7"/><polygon id="Rectangle-30" points="66.721 56.39 60.941 53.186 66.821 49.464 72.603 52.685"/><polygon id="Rectangle-30" points="59.496 52.384 24.754 33.007 30.617 29.178 65.375 48.658"/><polygon id="Rectangle-30" points="23.305 32.194 17.504 28.941 23.363 25.09 29.166 28.361"/><polygon id="Rectangle-30" points="16.053 28.126 10.249 24.865 16.104 20.994 21.911 24.272"/><polygon id="Rectangle-30" points="8.797 24.049 .084 19.146 5.935 15.245 14.652 20.174"/><polygon id="Rectangle-30" points="91.406 61.382 85.631 58.18 94.02 52.883 99.799 56.11"/><polygon id="Rectangle-30" points="84.187 57.379 78.409 54.167 84.293 50.435 90.074 53.664"/><polygon id="Rectangle-30" points="76.964 53.363 71.182 50.142 77.063 46.387 82.847 49.626"/><polygon id="Rectangle-30" points="69.736 49.335 63.951 46.105 69.828 42.329 75.616 45.577"/><polygon id="Rectangle-30" points="62.505 45.296 56.716 42.057 62.59 38.259 68.381 41.516"/><polygon id="Rectangle-30" points="55.268 41.246 49.476 37.998 55.346 34.179 61.141 37.444"/><polygon id="Rectangle-30" points="48.027 37.185 42.232 33.929 48.099 30.088 53.897 33.361"/><polygon id="Rectangle-30" points="40.782 33.114 34.983 29.849 40.847 25.987 46.649 29.268"/><polygon id="Rectangle-30" points="33.533 29.032 27.73 25.761 33.59 21.877 39.396 25.166"/><polygon id="Rectangle-30" points="26.279 24.942 20.472 21.663 26.329 17.758 32.138 21.054"/><polygon id="Rectangle-30" points="19.02 20.842 7.398 14.265 13.248 10.322 24.876 16.933"/></g><g id="KLAVA" fill="#003FE3" transform="translate(56.400588, 34.119122) rotate(0.500000) translate(-56.400588, -34.119122) translate(0.400588, 1.119122)"><polygon id="Rectangle-30" points="27.729 .231 33.552 3.582 27.698 7.594 21.879 4.26"/><polygon id="Rectangle-30" points="35.007 4.419 40.825 7.764 34.969 11.754 29.153 8.426"/><polygon id="Rectangle-30" points="42.28 8.599 48.095 11.937 42.235 15.906 36.422 12.585"/><polygon id="Rectangle-30" points="49.548 12.771 55.36 16.102 49.497 20.048 43.688 16.735"/><polygon id="Rectangle-30" points="56.812 16.934 62.62 20.257 56.754 24.182 50.948 20.876"/><polygon id="Rectangle-30" points="64.072 21.087 69.877 24.403 64.007 28.305 58.205 25.007"/><polygon id="Rectangle-30" points="71.327 25.231 77.128 28.539 71.255 32.419 65.457 29.129"/><polygon id="Rectangle-30" points="78.578 29.364 84.376 32.664 78.499 36.522 72.704 33.24"/><polygon id="Rectangle-30" points="85.825 33.487 91.619 36.778 85.738 40.614 79.947 37.341"/><polygon id="Rectangle-30" points="93.067 37.599 98.857 40.881 92.974 44.694 87.186 41.431"/><polygon id="Rectangle-30" points="100.304 41.7 111.875 48.236 105.986 52.009 94.42 45.509"/><polygon id="Rectangle-30" points="98.768 56.761 90.1 51.922 95.986 48.163 104.658 53.028"/><polygon id="Rectangle-30" points="88.655 51.114 82.872 47.877 88.754 44.095 94.54 47.35"/><polygon id="Rectangle-30" points="81.426 47.066 75.639 43.82 81.518 40.016 87.307 43.28"/><polygon id="Rectangle-30" points="74.192 43.007 68.402 39.751 74.278 35.925 80.071 39.199"/><polygon id="Rectangle-30" points="66.954 38.936 61.161 35.671 67.033 31.824 72.829 35.106"/><polygon id="Rectangle-30" points="59.712 34.854 53.915 31.581 59.784 27.712 65.584 31.002"/><polygon id="Rectangle-30" points="52.465 30.762 46.665 27.481 52.53 23.59 58.333 26.888"/><polygon id="Rectangle-30" points="45.214 26.66 39.41 23.371 45.272 19.459 51.079 22.765"/><polygon id="Rectangle-30" points="37.959 22.548 32.151 19.252 38.01 15.318 43.82 18.631"/><polygon id="Rectangle-30" points="30.699 18.427 24.887 15.124 30.743 11.168 36.557 14.489"/><polygon id="Rectangle-30" points="23.434 14.297 14.711 9.331 20.562 5.345 29.289 10.337"/><polygon id="Rectangle-30" points="84.043 65.953 75.385 61.18 81.271 57.501 89.933 62.3"/><polygon id="Rectangle-30" points="73.942 60.383 68.166 57.189 74.048 53.488 79.827 56.7"/><polygon id="Rectangle-30" points="66.721 56.39 60.941 53.186 66.821 49.464 72.603 52.685"/><polygon id="Rectangle-30" points="59.496 52.384 24.754 33.007 30.617 29.178 65.375 48.658"/><polygon id="Rectangle-30" points="23.305 32.194 17.504 28.941 23.363 25.09 29.166 28.361"/><polygon id="Rectangle-30" points="16.053 28.126 10.249 24.865 16.104 20.994 21.911 24.272"/><polygon id="Rectangle-30" points="8.797 24.049 .084 19.146 5.935 15.245 14.652 20.174"/><polygon id="Rectangle-30" points="91.406 61.382 85.631 58.18 94.02 52.883 99.799 56.11"/><polygon id="Rectangle-30" points="84.187 57.379 78.409 54.167 84.293 50.435 90.074 53.664"/><polygon id="Rectangle-30" points="76.964 53.363 71.182 50.142 77.063 46.387 82.847 49.626"/><polygon id="Rectangle-30" points="69.736 49.335 63.951 46.105 69.828 42.329 75.616 45.577"/><polygon id="Rectangle-30" points="62.505 45.296 56.716 42.057 62.59 38.259 68.381 41.516"/><polygon id="Rectangle-30" points="55.268 41.246 49.476 37.998 55.346 34.179 61.141 37.444"/><polygon id="Rectangle-30" points="48.027 37.185 42.232 33.929 48.099 30.088 53.897 33.361"/><polygon id="Rectangle-30" points="40.782 33.114 34.983 29.849 40.847 25.987 46.649 29.268"/><polygon id="Rectangle-30" points="33.533 29.032 27.73 25.761 33.59 21.877 39.396 25.166"/><polygon id="Rectangle-30" points="26.279 24.942 20.472 21.663 26.329 17.758 32.138 21.054"/><polygon id="Rectangle-30" points="19.02 20.842 7.398 14.265 13.248 10.322 24.876 16.933"/></g></g><polygon id="Rectangle-9" fill="#568FFF" points="91.345 144.158 128.069 165.306 111.041 175.05 74.653 154.058"/></g><g id="cont" transform="translate(235.000000, 67.000000)"><polygon id="Rectangle-34" fill="#F1F5FF" points="1.396 .083 72.901 41.081 72.901 93.99 .768 52.479"/><polygon id="Rectangle-34" fill="#004AFA" points="1.396 .083 72.901 41.081 72.901 44.868 1.396 3.879"/><path id="Oval-9" fill="#98B6FF" d="M5.92240138,5.50509731 C6.33577172,5.44430533 6.60040358,5.05992082 6.51347319,4.64655049 C6.4265428,4.23318015 6.02096893,3.94735892 5.60759859,4.0081509 C5.19422826,4.06894288 4.92959639,4.45332739 5.01652678,4.86669773 C5.10345717,5.28006806 5.50903104,5.56588929 5.92240138,5.50509731 Z"/><path id="Oval-9" fill="#DDE7FF" d="M7.92240138,6.50509731 C8.33577172,6.44430533 8.60040358,6.05992082 8.51347319,5.64655049 C8.4265428,5.23318015 8.02096893,4.94735892 7.60759859,5.0081509 C7.19422826,5.06894288 6.92959639,5.45332739 7.01652678,5.86669773 C7.10345717,6.28006806 7.50903104,6.56588929 7.92240138,6.50509731 Z"/><path id="Oval-9" fill="#F1F5FF" d="M9.92240138,7.50509731 C10.3357717,7.44430533 10.6004036,7.05992082 10.5134732,6.64655049 C10.4265428,6.23318015 10.0209689,5.94735892 9.60759859,6.0081509 C9.19422826,6.06894288 8.92959639,6.45332739 9.01652678,6.86669773 C9.10345717,7.28006806 9.50903104,7.56588929 9.92240138,7.50509731 Z"/><polygon id="Rectangle-35" fill="#C4D5FF" points="5 9.554 23 20 23 22 5 11.554"/><polygon id="Rectangle-35" fill="#C4D5FF" points="5 13.932 26.991 26.598 26.991 27.598 5 14.932"/><polygon id="Rectangle-35" fill="#C4D5FF" points="5 15.932 26.991 28.598 26.991 29.598 5 16.932"/><polygon id="Rectangle-35" fill="#C4D5FF" points="5 17.932 26.991 30.598 26.991 31.598 5 18.932"/><path id="Path-53" fill="#004AFA" d="M1.04772949,32.6595459 C3.29775475,38.6199972 5.63503502,42.0624614 8.05957031,42.9869385 C11.6963732,44.3736541 13.1672363,38.5185547 16.5718994,38.6889648 C19.9765625,38.859375 24.4901123,54.9234619 27.8974609,54.9234619 C31.3048096,54.9234619 31.8470459,41.0998535 35.9515381,41.4080811 C38.2501888,41.5806986 40.2505168,47.8894267 42.1125488,53.4595947 C43.7108154,58.2407227 46.0666177,61.4991159 47.3922119,61.4295654 C48.4420048,61.3744855 50.1704886,61.1066948 51.0754395,60.3547363 C52.8509521,58.8793945 54.0091126,57.2162348 55.5195312,57.6820068 C57.8376465,58.3968506 62.2817383,73.0905762 66.2885742,73.8763428 C68.9597982,74.4001872 71.1518962,72.5046387 72.8648682,68.1896973 L72.8648682,93.9672852 L0.774902344,52.4539795 L1.04772949,32.6595459 Z"/><g id="vert-lines" fill="#E4ECFF" opacity=".5" transform="translate(7.000000, 24.000000)"><polygon id="Rectangle-36" points="0 0 .25 0 .25 32.323 0 32.04"/><polygon id="Rectangle-36" points="10 5 10.25 5 10.25 38.107 10 37.839"/><polygon id="Rectangle-36" points="20 11 20.25 11 20.25 44.323 20 44.04"/><polygon id="Rectangle-36" points="30 17 30.25 17 30.25 50.107 30 49.839"/><polygon id="Rectangle-36" points="39 22 39.25 22 39.25 55.323 39 55.04"/><polygon id="Rectangle-36" points="49 28 49.25 28 49.25 61.107 49 60.839"/><polygon id="Rectangle-36" points="58 33 58.25 33 58.25 66.107 58 65.839"/></g></g></g></g></g></svg>