<svg xmlns="http://www.w3.org/2000/svg" width="417" height="417" preserveAspectRatio="xMidYMid"><g><title>background</title><rect id="canvas_background" width="419" height="419" x="-1" y="-1" fill="none"/></g><g><title>Layer 1</title><path id="svg_1" fill="#343434" d="m207.960999,0l-2.794998,9.5l0,275.667999l2.794998,2.790009l127.962006,-75.638l-127.962006,-212.320007z"/><path id="svg_2" fill="#8C8C8C" d="m207.962006,0l-127.962006,212.320007l127.962006,75.639008l0,-133.80101l0,-154.158005z"/><path id="svg_3" fill="#3C3C3B" d="m207.960999,312.187012l-1.574997,1.919983l0,98.199005l1.574997,4.600006l128.039001,-180.319l-128.039001,75.600006z"/><path id="svg_4" fill="#8C8C8C" d="m207.962006,416.904999l0,-104.720001l-127.962006,-75.599991l127.962006,180.319992z"/><path id="svg_5" fill="#141414" d="m207.960999,287.958008l127.960022,-75.637009l-127.960022,-58.162003l0,133.799011z"/><path id="svg_6" fill="#393939" d="m80,212.320007l127.959991,75.638l0,-133.800003l-127.959991,58.162003z"/><line id="svg_7" x1="73.833" x2="327.833" y1="-2.883" y2="365.117" fill="none" fill-opacity="null" stroke="null" stroke-linecap="null" stroke-linejoin="null" stroke-opacity="null" stroke-width="null"/></g></svg>