<svg xmlns="http://www.w3.org/2000/svg" xmlns:xlink="http://www.w3.org/1999/xlink" width="30" height="30" version="1.1" viewBox="0 0 30 30"><title>if_currency-litecoin_2389818</title><desc>Created with Sketch.</desc><g id="wallet_assets" fill="none" fill-rule="evenodd" stroke="none" stroke-width="1" transform="translate(-780.000000, -728.000000)"><g id="if_currency-litecoin_2389818" fill-rule="nonzero" transform="translate(780.000000, 728.000000)"><path id="Shape" fill="#909BA7" d="M15,0 C6.71554687,0 0,6.71578125 0,15 C0,23.2842188 6.71578125,30 15,30 C23.2839844,30 30,23.2842188 30,15 C30,6.71578125 23.2842188,0 15,0 Z"/><polygon id="Shape" fill="#FFF" points="20.305 21.175 9.46 21.175 10.567 17.014 9 17.586 9.518 15.634 11.087 15.061 12.966 8 17.041 8 15.604 13.41 17.598 12.682 17.616 12.729 17.112 14.623 15.086 15.363 14.23 18.585 21 18.585"/></g></g></svg>