<svg xmlns="http://www.w3.org/2000/svg" xmlns:xlink="http://www.w3.org/1999/xlink" width="24" height="24" version="1.1" viewBox="0 0 24 24"><title>Icon/close-24-basic500</title><desc>Created with Sketch.</desc><g id="Icon/close-24-basic500" fill="none" fill-rule="evenodd" stroke="none" stroke-width="1"><g><rect id="Rectangle-3" width="24" height="24" x="0" y="0" fill="#FFF" fill-opacity="0"/><path id="Line" fill="#9BA6B2" fill-rule="nonzero" d="M11.8388348,-0.161165235 L11.8388348,-0.161165235 C12.1149771,-0.161165235 12.3388348,0.0626923899 12.3388348,0.338834765 L12.3388348,23.3388348 C12.3388348,23.6149771 12.1149771,23.8388348 11.8388348,23.8388348 L11.8388348,23.8388348 C11.5626924,23.8388348 11.3388348,23.6149771 11.3388348,23.3388348 L11.3388348,0.338834765 C11.3388348,0.0626923899 11.5626924,-0.161165235 11.8388348,-0.161165235 Z" transform="translate(11.838835, 11.838835) rotate(45.000000) translate(-11.838835, -11.838835)"/><path id="Line" fill="#9BA6B2" fill-rule="nonzero" d="M11.8388348,-0.161165235 L11.8388348,-0.161165235 C12.1149771,-0.161165235 12.3388348,0.0626923899 12.3388348,0.338834765 L12.3388348,23.3388348 C12.3388348,23.6149771 12.1149771,23.8388348 11.8388348,23.8388348 L11.8388348,23.8388348 C11.5626924,23.8388348 11.3388348,23.6149771 11.3388348,23.3388348 L11.3388348,0.338834765 C11.3388348,0.0626923899 11.5626924,-0.161165235 11.8388348,-0.161165235 Z" transform="translate(11.838835, 11.838835) rotate(-45.000000) translate(-11.838835, -11.838835)"/></g></g></svg>