<svg xmlns="http://www.w3.org/2000/svg" xmlns:xlink="http://www.w3.org/1999/xlink" width="100" height="100" version="1.1" viewBox="0 0 100 100"><title>Icons/100/NewTab-Dark</title><desc>Created with Sketch.</desc><g id="Icons/100/NewTab-Dark" fill="none" fill-rule="evenodd" stroke="none" stroke-width="1"><g id="Group" transform="translate(6.000000, 11.000000)"><rect id="Rectangle" width="80" height="70" x="0" y="0" fill="#BCBCBC" rx="4"/><rect id="Rectangle" width="58" height="20" x="11" y="20" fill="#999" rx="2"/><rect id="Rectangle" width="17" height="14" x="11" y="43" fill="#999" rx="2"/><rect id="Rectangle" width="17" height="14" x="31.5" y="43" fill="#999" rx="2"/><rect id="Rectangle" width="17" height="14" x="52" y="43" fill="#999" rx="2"/><path id="Rectangle" fill="#5A81EA" d="M4,0 L76,0 C78.209139,-4.05812251e-16 80,1.790861 80,4 L80,12 L80,12 L0,12 L0,4 C-2.705415e-16,1.790861 1.790861,4.05812251e-16 4,0 Z"/><circle id="Oval" cx="6" cy="6" r="2" fill="#DFE8FF"/><circle id="Oval" cx="12" cy="6" r="2" fill="#DFE8FF" opacity=".497"/><circle id="Oval" cx="18" cy="6" r="2" fill="#DFE8FF" opacity=".204"/><g id="Group-2" transform="translate(62.000000, 52.000000)"><circle id="Oval" cx="13" cy="13" r="13" fill="#5A81EA"/><path id="Combined-Shape" fill="#FFF" d="M13,7 C13.5522847,7 14,7.44771525 14,8 L14,12 L18,12 C18.5522847,12 19,12.4477153 19,13 C19,13.5522847 18.5522847,14 18,14 L14,14 L14,18 C14,18.5522847 13.5522847,19 13,19 C12.4477153,19 12,18.5522847 12,18 L12,14 L8,14 C7.44771525,14 7,13.5522847 7,13 C7,12.4477153 7.44771525,12 8,12 L12,12 L12,8 C12,7.44771525 12.4477153,7 13,7 Z"/></g></g></g></svg>