<svg xmlns="http://www.w3.org/2000/svg" xmlns:xlink="http://www.w3.org/1999/xlink" width="60" height="60" version="1.1" viewBox="0 0 60 60"><title>Icon/Asset Logo/keeperlogo-60</title><desc>Created with Sketch.</desc><defs><linearGradient id="linearGradient-1" x1="50%" x2="2.204%" y1="50%" y2="97.796%"><stop offset="0%" stop-color="#05F"/><stop offset="100%" stop-color="#05F" stop-opacity=".8"/></linearGradient><polygon id="path-2" points="16.406 16.406 43.594 16.406 43.594 43.594 16.406 43.594"/><filter id="filter-3" width="309.7%" height="309.7%" x="-82.8%" y="-126.9%" filterUnits="objectBoundingBox"><feOffset dx="6" dy="-6" in="SourceAlpha" result="shadowOffsetOuter1"/><feGaussianBlur in="shadowOffsetOuter1" result="shadowBlurOuter1" stdDeviation="8.5"/><feColorMatrix in="shadowBlurOuter1" type="matrix" values="0 0 0 0 0 0 0 0 0 0 0 0 0 0 0 0 0 0 0.2 0"/></filter></defs><g id="Icon/Asset-Logo/keeperlogo-60" fill="none" fill-rule="evenodd" stroke="none" stroke-width="1"><rect id="ico-zone" width="60" height="60" x="0" y="0" fill="#D8D8D8" fill-opacity="0" fill-rule="nonzero"/><path id="white-block" fill="#F8F9FB" d="M23.4412361,2.60565968e-15 L36.5587639,4.49976767e-15 C44.7097924,3.00244803e-15 47.6655523,0.848691302 50.6454464,2.44235615 C53.6253406,4.036021 55.963979,6.37465939 57.5576439,9.35455357 C59.1513087,12.3344477 60,15.2902076 60,23.4412361 L60,36.5587639 C60,44.7097924 59.1513087,47.6655523 57.5576439,50.6454464 C55.963979,53.6253406 53.6253406,55.963979 50.6454464,57.5576439 C47.6655523,59.1513087 44.7097924,60 36.5587639,60 L23.4412361,60 C15.2902076,60 12.3344477,59.1513087 9.35455357,57.5576439 C6.37465939,55.963979 4.036021,53.6253406 2.44235615,50.6454464 C0.848691302,47.6655523 5.24982962e-15,44.7097924 6.31832734e-16,36.5587639 L4.18408301e-15,23.4412361 C3.18586992e-15,15.2902076 0.848691302,12.3344477 2.44235615,9.35455357 C4.036021,6.37465939 6.37465939,4.036021 9.35455357,2.44235615 C12.3344477,0.848691302 15.2902076,4.10297932e-15 23.4412361,2.60565968e-15 Z"/><g id="waves-logo" fill-rule="nonzero" transform="translate(30.000000, 30.000000) rotate(135.000000) translate(-30.000000, -30.000000)"><use fill="#000" fill-opacity="1" filter="url(#filter-3)" xlink:href="#path-2"/><use fill="url(#linearGradient-1)" xlink:href="#path-2"/></g></g></svg>