<svg xmlns="http://www.w3.org/2000/svg" xmlns:xlink="http://www.w3.org/1999/xlink" width="90" height="90" version="1.1" viewBox="0 0 90 90"><title>Style/Icons/Other/90/Moving-Dark</title><desc>Created with Sketch.</desc><g id="Style/Icons/Other/90/Moving-Dark" fill="none" fill-rule="evenodd" stroke="none" stroke-width="1"><path id="Path" fill="#BCBCBC" fill-rule="nonzero" d="M61.5,65 L5.02941176,65 C3.08823529,65 1.5,63.47 1.5,61.6 L1.5,17.4 C1.5,15.53 3.08823529,14 5.02941176,14 L57.9705882,14 C59.9117647,14 61.5,15.53 61.5,17.4 L61.5,65 Z"/><rect id="Rectangle" width="42" height="15" x="10.5" y="30.5" fill="#999" rx="1"/><rect id="Rectangle" width="12" height="9" x="10.5" y="48.5" fill="#999" rx="1"/><rect id="Rectangle" width="12" height="9" x="25.5" y="48.5" fill="#999" rx="1"/><rect id="Rectangle" width="12" height="9" x="40.5" y="48.5" fill="#999" rx="1"/><path id="Rectangle" fill="#5A81EA" d="M3.5,14 L59.5,14 C60.6045695,14 61.5,14.8954305 61.5,16 L61.5,24.5 L61.5,24.5 L1.5,24.5 L1.5,16 C1.5,14.8954305 2.3954305,14 3.5,14 Z"/><circle id="Oval" cx="7.125" cy="19.25" r="1.875" fill="#CCDAFF"/><circle id="Oval" cx="13.125" cy="19.25" r="1.875" fill="#CCDAFF" opacity=".5"/><circle id="Oval" cx="19.125" cy="19.25" r="1.875" fill="#CCDAFF" opacity=".1"/><path id="Path" fill="#7C9FFF" fill-rule="nonzero" d="M61.5,35 L68.7857143,35 C78.8035714,35 87,42.5 87,51.6666667 L87,65 L61.5,65 L61.5,35 Z"/><path id="Path" fill="#2D2D2D" fill-rule="nonzero" d="M67.5,53.8076923 L67.5,39.9615385 L69.2307692,39.9615385 C75.9807692,39.9615385 81.3461538,45.3269231 81.3461538,52.0769231 L81.3461538,53.8076923 L67.5,53.8076923 Z"/><path id="Path" fill="#5A81EA" fill-rule="nonzero" d="M87.4038462,70 L2.59615385,70 C1.21153846,70 0,68.8333333 0,67.5 L0,67.5 C0,66.1666667 1.21153846,65 2.59615385,65 L87.4038462,65 C88.7884615,65 90,66.1666667 90,67.5 L90,67.5 C90,68.8333333 88.7884615,70 87.4038462,70 Z" opacity=".9"/><path id="Rectangle" fill="#5A81EA" fill-rule="nonzero" d="M83,57 L87,57 L87,57 L87,62 L83,62 C82.4477153,62 82,61.5522847 82,61 L82,58 C82,57.4477153 82.4477153,57 83,57 Z"/><circle id="Oval" cx="72.5" cy="67.5" r="8.5" fill="#5A81EA"/><circle id="Oval" cx="72.5" cy="67.5" r="3.5" fill="#2D2D2D" opacity=".8"/><circle id="Oval" cx="19.5" cy="67.5" r="8.5" fill="#5A81EA"/><circle id="Oval" cx="19.5" cy="67.5" r="3.5" fill="#2D2D2D" opacity=".8"/></g></svg>