<svg xmlns="http://www.w3.org/2000/svg" xmlns:xlink="http://www.w3.org/1999/xlink" width="260" height="216" version="1.1" viewBox="0 0 260 216"><title>Illustration/Slide/userimg-dex-260</title><desc>Created with Sketch.</desc><defs><linearGradient id="linearGradient-1" x1="49.995%" x2="49.995%" y1="100.01%" y2="-.006%"><stop offset="0%" stop-color="#C5E3FF"/><stop offset="100%" stop-color="#DCF5FF" stop-opacity=".5"/></linearGradient><linearGradient id="linearGradient-2" x1="49.242%" x2="49.242%" y1="100.015%" y2=".046%"><stop offset="0%" stop-color="#3FBDFF"/><stop offset="100%" stop-color="#0089FF"/></linearGradient><linearGradient id="linearGradient-3" x1="37.527%" x2="62.543%" y1="62.479%" y2="37.493%"><stop offset="0%" stop-color="#0082FF"/><stop offset="100%" stop-color="#0065FF"/></linearGradient><linearGradient id="linearGradient-4" x1="55.571%" x2="44.43%" y1="20.275%" y2="79.701%"><stop offset="0%" stop-color="#0043EA"/><stop offset="100%" stop-color="#008EFF"/></linearGradient><linearGradient id="linearGradient-5" x1="54.259%" x2="45.739%" y1="39.392%" y2="60.585%"><stop offset="0%" stop-color="#06A0FF"/><stop offset="100%" stop-color="#63C4FF"/></linearGradient><filter id="filter-6" width="155.5%" height="120.4%" x="-27.7%" y="-10.2%" filterUnits="objectBoundingBox"><feGaussianBlur in="SourceGraphic" stdDeviation="1.466"/></filter><linearGradient id="linearGradient-7" x1="49.08%" x2="49.08%" y1="99.97%" y2="-.016%"><stop offset="0%" stop-color="#88CEFF"/><stop offset="100%" stop-color="#0089FF"/></linearGradient><linearGradient id="linearGradient-8" x1="37.534%" x2="62.513%" y1="62.485%" y2="37.527%"><stop offset="0%" stop-color="#0082FF"/><stop offset="100%" stop-color="#0065FF"/></linearGradient><linearGradient id="linearGradient-9" x1="58.464%" x2="41.525%" y1="18.291%" y2="81.694%"><stop offset="0%" stop-color="#0043EA"/><stop offset="100%" stop-color="#008EFF"/></linearGradient><linearGradient id="linearGradient-10" x1="56.475%" x2="43.528%" y1="38.694%" y2="61.293%"><stop offset="0%" stop-color="#06A0FF"/><stop offset="100%" stop-color="#63C4FF"/></linearGradient><filter id="filter-11" width="169.4%" height="145.4%" x="-34.7%" y="-22.7%" filterUnits="objectBoundingBox"><feGaussianBlur in="SourceGraphic" stdDeviation="1.466"/></filter><linearGradient id="linearGradient-12" x1="50.114%" x2="50.114%" y1="99.981%" y2=".034%"><stop offset="0%" stop-color="#3FBDFF"/><stop offset="100%" stop-color="#0089FF"/></linearGradient><linearGradient id="linearGradient-13" x1="37.518%" x2="62.493%" y1="62.474%" y2="37.543%"><stop offset="0%" stop-color="#0082FF"/><stop offset="100%" stop-color="#0065FF"/></linearGradient><linearGradient id="linearGradient-14" x1="69.277%" x2="30.693%" y1="12.199%" y2="87.769%"><stop offset="0%" stop-color="#0043EA"/><stop offset="100%" stop-color="#008EFF"/></linearGradient><linearGradient id="linearGradient-15" x1="64.704%" x2="35.325%" y1="36.535%" y2="63.435%"><stop offset="0%" stop-color="#06A0FF"/><stop offset="100%" stop-color="#63C4FF"/></linearGradient><filter id="filter-16" width="155.5%" height="151.3%" x="-27.7%" y="-25.6%" filterUnits="objectBoundingBox"><feGaussianBlur in="SourceGraphic" stdDeviation="1.466"/></filter><linearGradient id="linearGradient-17" x1="75.023%" x2="25.019%" y1="64.414%" y2="35.593%"><stop offset="0%" stop-color="#FFA000"/><stop offset="54.44%" stop-color="#FC8500"/><stop offset="100%" stop-color="#FA7300"/></linearGradient><linearGradient id="linearGradient-18" x1="56.315%" x2="43.802%" y1="20.068%" y2="80.488%"><stop offset="0%" stop-color="#FF6400"/><stop offset="100%" stop-color="#FFB25C"/></linearGradient><linearGradient id="linearGradient-19" x1="50.001%" x2="50.001%" y1="-.02%" y2="99.985%"><stop offset=".208%" stop-color="#FFBD00"/><stop offset="100%" stop-color="#FFE685"/></linearGradient><filter id="filter-20" width="155.5%" height="119.9%" x="-27.7%" y="-10%" filterUnits="objectBoundingBox"><feGaussianBlur in="SourceGraphic" stdDeviation="1.466"/></filter><linearGradient id="linearGradient-21" x1="50.019%" x2="50.019%" y1="99.99%" y2=".007%"><stop offset="0%" stop-color="#FFEAAD" stop-opacity=".2"/><stop offset="50.87%" stop-color="#FFEAAD" stop-opacity="0"/></linearGradient><linearGradient id="linearGradient-22" x1="49.362%" x2="49.362%" y1="99.975%" y2="-.033%"><stop offset="0%" stop-color="#90D8FF"/><stop offset="100%" stop-color="#089FFF"/></linearGradient><linearGradient id="linearGradient-23" x1="37.47%" x2="62.471%" y1="62.497%" y2="37.472%"><stop offset="0%" stop-color="#0082FF"/><stop offset="100%" stop-color="#0065FF"/></linearGradient><linearGradient id="linearGradient-24" x1="54.436%" x2="45.563%" y1="21.156%" y2="78.869%"><stop offset="11.61%" stop-color="#0043EA"/><stop offset="100%" stop-color="#008EFF"/></linearGradient><linearGradient id="linearGradient-25" x1="45.585%" x2="54.414%" y1="21.169%" y2="78.856%"><stop offset="0%" stop-color="#06A0FF"/><stop offset="100%" stop-color="#63C4FF"/></linearGradient><filter id="filter-26" width="155.5%" height="135.3%" x="-27.7%" y="-17.6%" filterUnits="objectBoundingBox"><feGaussianBlur in="SourceGraphic" stdDeviation="1.466"/></filter><linearGradient id="linearGradient-27" x1="49.374%" x2="49.374%" y1="100.013%" y2=".004%"><stop offset="0%" stop-color="#79CFFF"/><stop offset="100%" stop-color="#0089FF"/></linearGradient><linearGradient id="linearGradient-28" x1="37.522%" x2="62.529%" y1="62.498%" y2="37.512%"><stop offset="0%" stop-color="#0082FF"/><stop offset="100%" stop-color="#0065FF"/></linearGradient><linearGradient id="linearGradient-29" x1="76.254%" x2="23.777%" y1="8.959%" y2="91.054%"><stop offset="18.27%" stop-color="#0043EA"/><stop offset="100%" stop-color="#008EFF"/></linearGradient><linearGradient id="linearGradient-30" x1="69.984%" x2="30.034%" y1="35.405%" y2="64.612%"><stop offset="0%" stop-color="#06A0FF"/><stop offset="100%" stop-color="#63C4FF"/></linearGradient><filter id="filter-31" width="155.5%" height="133.4%" x="-27.7%" y="-16.7%" filterUnits="objectBoundingBox"><feGaussianBlur in="SourceGraphic" stdDeviation="1.466"/></filter><linearGradient id="linearGradient-32" x1="49.9%" x2="49.9%" y1="100.004%" y2=".051%"><stop offset="0%" stop-color="#3FBDFF"/><stop offset="100%" stop-color="#0089FF"/></linearGradient><linearGradient id="linearGradient-33" x1="37.498%" x2="62.493%" y1="62.489%" y2="37.496%"><stop offset="0%" stop-color="#0082FF"/><stop offset="100%" stop-color="#0065FF"/></linearGradient><linearGradient id="linearGradient-34" x1="59.049%" x2="40.944%" y1="17.904%" y2="82.059%"><stop offset="19.81%" stop-color="#0043EA"/><stop offset="100%" stop-color="#008EFF"/></linearGradient><linearGradient id="linearGradient-35" x1="56.903%" x2="43.094%" y1="38.55%" y2="61.415%"><stop offset="0%" stop-color="#06A0FF"/><stop offset="100%" stop-color="#63C4FF"/></linearGradient><filter id="filter-36" width="155.5%" height="130.1%" x="-27.7%" y="-15.1%" filterUnits="objectBoundingBox"><feGaussianBlur in="SourceGraphic" stdDeviation="1.466"/></filter><linearGradient id="linearGradient-37" x1="37.502%" x2="62.498%" y1="62.496%" y2="37.491%"><stop offset="0%" stop-color="#0082FF"/><stop offset="100%" stop-color="#0065FF"/></linearGradient><linearGradient id="linearGradient-38" x1="61.465%" x2="43.762%" y1="21.723%" y2="79.119%"><stop offset="15.15%" stop-color="#0043EA"/><stop offset="74.75%" stop-color="#0077F8"/><stop offset="100%" stop-color="#008EFF"/></linearGradient><linearGradient id="linearGradient-39" x1="37.251%" x2="62.376%" y1="16.325%" y2="84.738%"><stop offset="0%" stop-color="#06A0FF"/><stop offset="100%" stop-color="#63C4FF"/></linearGradient></defs><g id="Illustration/Slide/userimg-dex-260" fill="none" fill-rule="evenodd" stroke="none" stroke-width="1"><g><rect id="ico-zone" width="260" height="216" x="0" y="0" fill="#D8D8D8" fill-opacity="0" fill-rule="nonzero"/><g id="dex" transform="translate(1.166667, 0.000000)"><polygon id="Path" fill="url(#linearGradient-1)" points="128.885 215.603 257.643 148.22 225.422 131.383 241.532 122.964 112.647 55.549 15.73 105.84 48.744 122.996 .127 148.411"/><g id="Group" transform="translate(51.059246, 0.000000)"><g transform="translate(145.420664, 0.000000)"><path id="Path" fill="url(#linearGradient-2)" d="M19.9351784,91.099218 L18.8886224,91.099218 C18.8886224,91.099218 18.8886224,116.069892 18.8886224,116.800587 C18.8886224,117.340665 19.9351784,117.340665 19.9351784,116.800587 C19.9351784,116.038123 19.9351784,91.099218 19.9351784,91.099218 Z"/><polygon id="Path" fill="url(#linearGradient-3)" points="30.654 40.713 19.396 47.194 8.138 40.713 19.396 34.232"/><polygon id="Path" fill="url(#linearGradient-4)" points="30.654 40.713 19.396 47.194 19.396 100.662 30.654 94.149"/><polygon id="Path" fill="url(#linearGradient-5)" points="8.138 40.713 19.396 47.194 19.396 100.662 8.138 94.149"/><path id="Path" fill="#0062FF" d="M19.9351784,0.413000978 L18.8886224,0.413000978 C18.8886224,0.413000978 18.8886224,39.9824047 18.8886224,40.7130987 C18.8886224,41.2531769 19.9351784,41.2531769 19.9351784,40.7130987 C19.9351784,39.9506354 19.9351784,0.413000978 19.9351784,0.413000978 Z"/><path id="Path" fill="#0089FF" d="M19.9351784,0.413000978 C19.9351784,0.222385142 19.7131816,0.0953079179 19.4277573,0.0953079179 C19.1423329,0.0953079179 18.9203362,0.254154448 18.9203362,0.413000978 C18.9203362,0.603616813 19.1423329,0.730694037 19.4277573,0.730694037 C19.7131816,0.730694037 19.9351784,0.603616813 19.9351784,0.413000978 Z"/><polygon id="Rectangle" fill="#0751EB" fill-rule="nonzero" points="0 75.293 15.857 75.293 15.857 118.453 0 118.453" filter="url(#filter-6)" opacity=".3"/><path id="Path" fill="#4AE5FF" d="M19.9351784,34.5180841 C19.9351784,22.985826 19.9351784,0.413000978 19.9351784,0.413000978 C19.9351784,0.222385142 19.7131816,0.0953079179 19.4277573,0.0953079179 C19.1423329,0.0953079179 18.9203362,0.254154448 18.9203362,0.413000978 C18.9203362,0.413000978 18.9203362,22.985826 18.9203362,34.5180841 L8.16935219,40.7130987 L8.16935219,94.1490714 L18.9203362,100.344086 C18.9203362,107.523949 18.9203362,116.355816 18.9203362,116.768817 C18.9203362,117.308895 19.9668922,117.308895 19.9668922,116.768817 C19.9668922,116.324047 19.9668922,107.49218 19.9668922,100.312317 L30.7178762,94.1173021 L30.7178762,40.6495601 L19.9351784,34.5180841 Z" opacity=".21"/></g><g transform="translate(129.735137, 60.632454)"><path id="Path" fill="url(#linearGradient-7)" d="M18.495244,54.7067449 L17.4169742,54.7067449 C17.4169742,54.7067449 17.4169742,102.07478 17.4169742,102.837243 C17.4169742,103.409091 18.5269578,103.409091 18.5269578,102.837243 C18.495244,102.011241 18.495244,54.7067449 18.495244,54.7067449 Z"/><polygon id="Path" fill="url(#linearGradient-8)" points="29.817 20.428 17.956 27.258 6.095 20.428 17.956 13.597"/><polygon id="Path" fill="url(#linearGradient-9)" points="29.817 20.428 17.956 27.258 17.956 64.746 29.817 57.915"/><polygon id="Path" fill="url(#linearGradient-10)" points="6.127 20.428 17.956 27.258 17.956 64.746 6.095 57.915"/><path id="Path" fill="#0062FF" d="M18.495244,0.444770283 L17.4169742,0.444770283 C17.4169742,0.444770283 17.4169742,19.6969697 17.4169742,20.4276637 C17.4169742,20.9995112 18.5269578,20.9995112 18.5269578,20.4276637 C18.495244,19.6334311 18.495244,0.444770283 18.495244,0.444770283 Z"/><ellipse id="Oval" cx="17.956" cy=".445" fill="#0089FF" rx="1" ry="1"/><rect id="Rectangle" width="12.686" height="19.379" x="0" y="54.383" fill="#0751EB" fill-rule="nonzero" filter="url(#filter-11)" opacity=".3"/><path id="Path" fill="#4AE5FF" d="M29.8170767,20.4276637 L18.5269578,13.914956 C18.5269578,8.06940371 18.5269578,0.444770283 18.5269578,0.444770283 C18.5269578,0.254154448 18.2732472,0.0953079179 17.9878229,0.0953079179 C17.6706847,0.0953079179 17.448688,0.254154448 17.448688,0.444770283 C17.448688,0.444770283 17.448688,8.06940371 17.448688,13.914956 L6.15856909,20.4276637 L6.15856909,20.4276637 L6.15856909,57.9154448 L17.448688,64.4281525 C17.448688,78.3431085 17.448688,102.297165 17.448688,102.805474 C17.448688,103.377322 18.5586716,103.377322 18.5586716,102.805474 C18.5586716,102.233627 18.5586716,78.2795699 18.5586716,64.3963832 L29.8487905,57.8836755 L29.8170767,20.4276637 Z" opacity=".18"/></g><g transform="translate(108.315498, 44.747801)"><path id="Path" fill="url(#linearGradient-12)" d="M21.6160107,87.016129 L20.4425994,87.016129 C20.4425994,87.016129 20.4425994,109.731183 20.4425994,110.525415 C20.4425994,111.129032 21.5842968,111.129032 21.5842968,110.525415 C21.6160107,109.667644 21.6160107,87.016129 21.6160107,87.016129 Z"/><polygon id="Path" fill="url(#linearGradient-13)" points="33.509 73.165 21.013 80.345 8.55 73.165 21.045 65.985"/><polygon id="Path" fill="url(#linearGradient-14)" points="33.509 73.165 21.013 80.345 21.013 97.595 33.509 90.384"/><polygon id="Path" fill="url(#linearGradient-15)" points="8.55 73.165 21.013 80.345 21.013 97.595 8.55 90.384"/><path id="Path" fill="#0062FF" d="M21.6160107,0.349462366 L20.4425994,0.349462366 C20.4425994,0.349462366 20.4425994,72.370479 20.4425994,73.1647116 C20.4425994,73.7683284 21.5842968,73.7683284 21.5842968,73.1647116 C21.6160107,72.3387097 21.6160107,0.349462366 21.6160107,0.349462366 Z"/><path id="Path" fill="#0089FF" d="M21.6160107,0.349462366 C21.6160107,0.15884653 21.3623001,0 21.045162,0 C20.7280238,0 20.4743132,0.15884653 20.4743132,0.349462366 C20.4743132,0.540078201 20.7280238,0.698924731 21.045162,0.698924731 C21.3623001,0.730694037 21.6160107,0.540078201 21.6160107,0.349462366 Z"/><rect id="Rectangle" width="15.857" height="17.155" x="0" y="86.553" fill="#0751EB" fill-rule="nonzero" filter="url(#filter-16)" opacity=".3"/><path id="Path" fill="#4AE5FF" d="M21.6160107,66.3343109 C21.6160107,48.1940371 21.6160107,0.381231672 21.6160107,0.381231672 L21.6160107,0.381231672 L21.6160107,0.381231672 C21.6160107,0.190615836 21.3623001,0.031769306 21.045162,0.031769306 C20.7280238,0.031769306 20.4743132,0.190615836 20.4743132,0.381231672 L20.4743132,0.381231672 L20.4743132,0.381231672 C20.4743132,0.381231672 20.4743132,48.2258065 20.4743132,66.3343109 L8.58163182,73.1647116 L8.58163182,73.1647116 L8.58163182,90.3836755 L20.4743132,97.2458456 C20.4743132,103.377322 20.4743132,110.080645 20.4743132,110.493646 C20.4743132,111.097263 21.6160107,111.097263 21.6160107,110.493646 C21.6160107,110.048876 21.6160107,103.345552 21.6160107,97.2140762 L33.5086921,90.3836755 L33.5086921,73.1647116 L21.6160107,66.3343109 Z" opacity=".15"/></g><g transform="translate(88.701517, 100.026393)"><polygon id="Path" fill="url(#linearGradient-17)" points="34.094 35.582 20.965 43.111 7.867 35.582 20.997 28.021"/><polygon id="Path" fill="url(#linearGradient-18)" points="34.094 35.582 20.965 43.111 20.965 98.866 34.094 92.036"/><polygon id="Path" fill="url(#linearGradient-19)" points="7.867 35.582 20.965 43.111 20.965 98.866 7.867 105.696"/><path id="Path" fill="#FF6D00" d="M21.599139,0.476539589 L20.3940139,0.476539589 C20.3940139,0.476539589 20.3940139,34.7556207 20.3940139,35.5816227 C20.3940139,36.2170088 21.599139,36.2170088 21.599139,35.5816227 C21.599139,34.6920821 21.599139,0.476539589 21.599139,0.476539589 Z"/><path id="Path" fill="#FFA300" d="M21.599139,0.476539589 C21.599139,0.254154448 21.3137146,0.0953079179 20.9965765,0.0953079179 C20.6477245,0.0953079179 20.3940139,0.254154448 20.3940139,0.476539589 C20.3940139,0.698924731 20.6794383,0.857771261 20.9965765,0.857771261 C21.3137146,0.857771261 21.599139,0.698924731 21.599139,0.476539589 Z"/><rect id="Rectangle" width="15.857" height="44.159" x="0" y="28.275" fill="#0751EB" fill-rule="nonzero" filter="url(#filter-20)" opacity=".2"/><path id="Path" fill="url(#linearGradient-21)" d="M34.0943829,35.5816227 L21.599139,28.3699902 C21.599139,18.1085044 21.599139,0.476539589 21.599139,0.476539589 C21.599139,0.254154448 21.3137146,0.0953079179 20.9965765,0.0953079179 C20.6477245,0.0953079179 20.3940139,0.254154448 20.3940139,0.476539589 C20.3940139,0.476539589 20.3940139,18.0767351 20.3940139,28.3699902 L7.86705617,35.5816227 L7.86705617,35.5816227 L7.86705617,105.696481 L34.0943829,92.0356794 L34.0943829,35.5816227 Z"/></g><g transform="translate(66.990365, 39.029326)"><path id="Path" fill="url(#linearGradient-22)" d="M22.2840303,126.060606 L21.0154777,126.060606 C21.0154777,126.060606 21.0154777,162.118768 21.0154777,162.97654 C21.0154777,163.643695 22.2840303,163.643695 22.2840303,162.97654 C22.2840303,162.02346 22.2840303,126.060606 22.2840303,126.060606 Z"/><polygon id="Path" fill="url(#linearGradient-23)" points="35.445 47.94 21.618 55.914 7.854 47.94 21.65 39.998"/><polygon id="Path" fill="url(#linearGradient-24)" points="35.445 47.94 21.618 55.914 21.618 137.72 35.445 129.778"/><polygon id="Path" fill="url(#linearGradient-25)" points="7.854 47.94 21.618 55.914 21.618 137.72 7.854 129.778"/><path id="Path" fill="#0062FF" d="M22.2840303,0.381231672 L21.0154777,0.381231672 C21.0154777,0.381231672 21.0154777,47.0821114 21.0154777,47.9398827 C21.0154777,48.6070381 22.2840303,48.6070381 22.2840303,47.9398827 C22.2840303,47.0185728 22.2840303,0.381231672 22.2840303,0.381231672 Z"/><ellipse id="Oval" cx="21.65" cy=".381" fill="#0089FF" rx="1" ry="1"/><rect id="Rectangle" width="15.857" height="24.957" x="0" y="72.21" fill="#0751EB" fill-rule="nonzero" filter="url(#filter-26)" opacity=".3"/><path id="Path" fill="#4AE5FF" d="M35.4452645,47.9398827 L22.2840303,40.3787879 C22.2840303,26.273216 22.2840303,0.381231672 22.2840303,0.381231672 C22.2840303,0.15884653 21.998606,0 21.649754,0 C21.300902,0 21.0154777,0.190615836 21.0154777,0.381231672 C21.0154777,0.381231672 21.0154777,26.273216 21.0154777,40.3787879 L7.85424354,47.9398827 L7.85424354,47.9398827 L7.85424354,129.777615 L21.0154777,137.370479 C21.0154777,148.013196 21.0154777,162.404692 21.0154777,162.94477 C21.0154777,163.611926 22.2840303,163.611926 22.2840303,162.94477 C22.2840303,162.341153 22.2840303,147.981427 22.2840303,137.33871 L35.4452645,129.777615 L35.4452645,47.9398827 Z" opacity=".09"/></g><g transform="translate(43.205002, 86.365591)"><path id="Path" fill="url(#linearGradient-27)" d="M24.5039975,41.014174 L23.1720172,41.014174 C23.1720172,41.014174 23.1720172,107.634409 23.1720172,108.555718 C23.1720172,109.254643 24.5039975,109.254643 24.5039975,108.555718 C24.5039975,107.57087 24.5039975,41.014174 24.5039975,41.014174 Z"/><polygon id="Path" fill="url(#linearGradient-28)" points="38.331 30.626 23.806 38.981 9.313 30.626 23.838 22.27"/><polygon id="Path" fill="url(#linearGradient-29)" points="38.331 30.626 23.806 38.981 23.806 53.309 38.331 44.954"/><polygon id="Path" fill="url(#linearGradient-30)" points="9.313 30.626 23.806 38.981 23.806 53.309 9.313 44.954"/><path id="Path" fill="#0062FF" d="M24.5039975,0.413000978 L23.1720172,0.413000978 C23.1720172,0.413000978 23.1720172,29.7043011 23.1720172,30.6256109 C23.1720172,31.3245357 24.5039975,31.3245357 24.5039975,30.6256109 C24.5039975,29.6407625 24.5039975,0.413000978 24.5039975,0.413000978 Z"/><path id="Path" fill="#0089FF" d="M24.5039975,0.413000978 C24.5039975,0.190615836 24.2185732,0 23.8380074,0 C23.4574416,0 23.1720172,0.190615836 23.1720172,0.413000978 C23.1720172,0.635386119 23.4574416,0.826001955 23.8380074,0.826001955 C24.1868594,0.826001955 24.5039975,0.635386119 24.5039975,0.413000978 Z"/><rect id="Rectangle" width="15.857" height="26.369" x="0" y="20.733" fill="#0751EB" fill-rule="nonzero" filter="url(#filter-31)" opacity=".3"/><path id="Path" fill="#4AE5FF" d="M38.3312218,30.6256109 L24.5039975,22.6515152 C24.5039975,13.6925709 24.5039975,0.413000978 24.5039975,0.413000978 C24.5039975,0.190615836 24.2185732,0 23.8380074,0 C23.4574416,0 23.1720172,0.190615836 23.1720172,0.413000978 C23.1720172,0.413000978 23.1720172,13.6925709 23.1720172,22.6515152 L9.34479295,30.6256109 L9.34479295,30.6256109 L9.34479295,44.9535679 L23.1720172,52.959433 C23.1720172,72.1798631 23.1720172,107.920332 23.1720172,108.587488 C23.1720172,109.286413 24.5039975,109.286413 24.5039975,108.587488 C24.5039975,107.856794 24.5039975,72.1163245 24.5039975,52.9276637 L38.3312218,44.9535679 L38.3312218,30.6256109 Z" opacity=".06"/></g><g transform="translate(18.151087, 70.798631)"><path id="Path" fill="url(#linearGradient-32)" d="M24.5039975,76.7546432 L23.0768758,76.7546432 C23.0768758,76.7546432 23.0768758,104.552786 23.0768758,105.537634 C23.0768758,106.268328 24.5039975,106.300098 24.5039975,105.537634 C24.5039975,104.489247 24.5039975,76.7546432 24.5039975,76.7546432 Z"/><polygon id="Path" fill="url(#linearGradient-33)" points="39.061 35.645 23.775 44.445 8.52 35.645 23.775 26.845"/><polygon id="Path" fill="url(#linearGradient-34)" points="39.061 35.645 23.775 44.445 23.775 89.717 39.061 80.916"/><polygon id="Path" fill="url(#linearGradient-35)" points="8.52 35.645 23.775 44.445 23.775 89.717 8.52 80.916"/><path id="Path" fill="#0062FF" d="M24.5039975,0.635386119 L23.0768758,0.635386119 C23.0768758,0.635386119 23.0768758,34.6603128 23.0768758,35.6451613 C23.0768758,36.3758553 24.5039975,36.4076246 24.5039975,35.6451613 C24.5039975,34.5967742 24.5039975,0.635386119 24.5039975,0.635386119 Z"/><ellipse id="Oval" cx="23.775" cy=".635" fill="#0089FF" rx="1" ry="1"/><rect id="Rectangle" width="15.857" height="29.228" x="0" y="63.362" fill="#0751EB" fill-rule="nonzero" filter="url(#filter-36)" opacity=".3"/><path id="Path" fill="#4AE5FF" d="M39.0606396,35.6451613 L24.5039975,27.2580645 C24.5039975,18.7438905 24.5039975,0.635386119 24.5039975,0.635386119 C24.5039975,0.381231672 24.1868594,0.190615836 23.8062936,0.190615836 C23.4257278,0.190615836 23.1085896,0.381231672 23.1085896,0.635386119 C23.1085896,0.635386119 23.1085896,18.7438905 23.1085896,27.2580645 L8.55194752,35.6451613 L8.55194752,35.6451613 L8.55194752,80.9164223 L23.1085896,89.3352884 C23.1085896,96.8646139 23.1085896,105.061095 23.1085896,105.569404 C23.1085896,106.300098 24.5357114,106.331867 24.5357114,105.569404 C24.5357114,105.029326 24.5357114,96.8010753 24.5357114,89.3035191 L39.0923534,80.9164223 L39.0606396,35.6451613 Z" opacity=".03"/></g><g id="Path" transform="translate(0.000000, 67.621701)"><polygon fill="url(#linearGradient-37)" points="32.158 72.18 16.079 81.457 .032 72.18 16.111 62.935"/><polygon fill="url(#linearGradient-38)" points="32.158 72.18 16.079 81.457 16.079 115.799 32.158 124.218"/><polygon fill="url(#linearGradient-39)" points=".032 72.18 16.079 81.457 16.079 115.799 .032 107.444"/><path fill="#0062FF" d="M16.8400369,0.635386119 L15.3494875,0.635386119 C15.3494875,0.635386119 15.3494875,71.1950147 15.3494875,72.2116325 C15.3494875,72.9740958 16.8400369,73.0058651 16.8400369,72.2116325 C16.8400369,71.0997067 16.8400369,0.635386119 16.8400369,0.635386119 Z"/><path fill="#0089FF" d="M16.8400369,0.635386119 C16.8400369,0.381231672 16.4911849,0.15884653 16.1106191,0.15884653 C15.7300533,0.15884653 15.3812013,0.349462366 15.3812013,0.635386119 C15.3812013,0.889540567 15.7300533,1.11192571 16.1106191,1.11192571 C16.4911849,1.11192571 16.8400369,0.889540567 16.8400369,0.635386119 Z"/></g></g></g></g></g></svg>